<svg width="180" height="46" viewBox="0 0 180 46" fill="none" xmlns="http://www.w3.org/2000/svg">
<g id="Xpay_logotype_02">
<g id="Logo">
<g id="Group 1">
<path id="Vector 1" d="M12.1773 5.44385H1V16.2825L6.53221 21.8147L12.1773 16.1696H22.903L12.1773 5.44385Z" fill="#273039"/>
<path id="Vector 2" d="M24.1449 39.7662H35.3223V28.9276L29.7901 23.3954L24.1449 29.0405H13.4192L24.1449 39.7662Z" fill="#273039"/>
<path id="Vector 3" d="M11.7257 28.1372V17.5244L1 28.1372V39.6532H11.7257L17.4837 33.8952L11.7257 28.1372Z" fill="#273039"/>
<path id="Vector 4" d="M24.5966 16.847V27.4598L35.3223 16.847V5.331H24.5966L18.8385 11.089L24.5966 16.847Z" fill="#273039"/>
</g>
<g id="PAY">
<path d="M51.5167 39.7662H45.7093V6.32104H79.4343C84.542 6.32104 88.7168 10.4959 88.7168 15.6036V21.9941C88.7168 27.1018 84.542 31.2766 79.4343 31.2766H51.5167V39.7662ZM79.4343 25.4459C81.3701 25.4459 82.9094 23.9299 82.9094 21.9941V15.6036C82.9094 13.6678 81.3701 12.1285 79.4343 12.1285H51.5167V25.4459H79.4343Z" fill="#273039"/>
<path d="M138.815 39.7662H131.841L127.573 33.399H99.3288L95.084 39.7662H88.0871L110.384 6.32104H116.518L138.815 39.7662ZM123.725 27.5916L113.462 12.1984L103.2 27.5916H123.725Z" fill="#273039"/>
<path d="M158.616 39.7662H152.808V24.5829L132.424 6.32104H141.17L155.724 19.4286L170.254 6.32104H179L158.616 24.5829V39.7662Z" fill="#273039"/>
</g>
</g>
</g>
</svg>
