<?xml version="1.0" encoding="utf-8"?>
<!-- Generator: Adobe Illustrator 26.0.0, SVG Export Plug-In . SVG Version: 6.00 Build 0)  -->
<svg version="1.1" id="Layer_1" xmlns="http://www.w3.org/2000/svg" xmlns:xlink="http://www.w3.org/1999/xlink" x="0px" y="0px"
	 viewBox="0 0 577.1 50.1" style="enable-background:new 0 0 577.1 50.1;" xml:space="preserve">
<style type="text/css">
	.st0{opacity:0.4;fill:#292D32;enable-background:new    ;}
</style>
<path class="st0" d="M577.1,1H0l43,41.7c3.6,3.5,8.4,5.4,13.4,5.4l0,0l0,0h120.4v1l0,0v-1c5,0,9.9-1.9,13.4-5.4L201,32.2
	c3.9-3.8,9.3-6,14.8-6l0,0l0,0h149.4c5.6,0,10.9,2.1,14.9,6l10.8,10.5l0,0l0,0c3.6,3.5,8.4,5.4,13.4,5.4h141.4
	c4.8,0,9.3-1.7,12.8-4.9l12.3-10.9c3.9-3.5,6.2-8.4,6.2-13.6l0,0l0,0V1H577.1z"/>
</svg>
