<svg width="19" height="18" viewBox="0 0 19 18" fill="none" xmlns="http://www.w3.org/2000/svg">
<g id="Icons" clip-path="url(#clip0_1574_15386)">
<path id="Vector" d="M2 9C2 9.85 2.2125 10.6282 2.6375 11.3347C3.0625 12.0412 3.63125 12.5817 4.34375 12.9562C4.51875 13.0562 4.647 13.2 4.7285 13.3875C4.81 13.575 4.813 13.7625 4.7375 13.95C4.6625 14.15 4.53125 14.2937 4.34375 14.3812C4.15625 14.4687 3.975 14.4625 3.8 14.3625C2.825 13.8625 2.03125 13.1408 1.41875 12.1973C0.80625 11.2538 0.5 10.188 0.5 9C0.5 7.825 0.797 6.76875 1.391 5.83125C1.985 4.89375 2.763 4.175 3.725 3.675C3.9 3.575 4.0845 3.5655 4.2785 3.6465C4.4725 3.7275 4.613 3.86825 4.7 4.06875C4.7875 4.24375 4.79375 4.425 4.71875 4.6125C4.64375 4.8 4.51875 4.94375 4.34375 5.04375C3.63125 5.41875 3.0625 5.9595 2.6375 6.666C2.2125 7.3725 2 8.1505 2 9ZM11 15C9.3375 15 7.92175 14.4158 6.75275 13.2473C5.58375 12.0788 4.9995 10.663 5 9C5 7.3375 5.5845 5.92175 6.7535 4.75275C7.9225 3.58375 9.338 2.9995 11 3C11.7 3 12.3625 3.1125 12.9875 3.3375C13.6125 3.5625 14.1812 3.875 14.6937 4.275C14.8562 4.4 14.9375 4.5625 14.9375 4.7625C14.9375 4.9625 14.8625 5.1375 14.7125 5.2875C14.575 5.425 14.403 5.5 14.1965 5.5125C13.99 5.525 13.7995 5.46875 13.625 5.34375C13.25 5.06875 12.8405 4.8595 12.3965 4.716C11.9525 4.5725 11.487 4.5005 11 4.5C9.75 4.5 8.6875 4.9375 7.8125 5.8125C6.9375 6.6875 6.5 7.75 6.5 9C6.5 10.25 6.9375 11.3125 7.8125 12.1875C8.6875 13.0625 9.75 13.5 11 13.5C11.4875 13.5 11.9532 13.428 12.3972 13.284C12.8412 13.14 13.2505 12.9307 13.625 12.6562C13.8 12.5312 13.9908 12.475 14.1973 12.4875C14.4038 12.5 14.5755 12.575 14.7125 12.7125C14.8625 12.8625 14.9375 13.0375 14.9375 13.2375C14.9375 13.4375 14.8562 13.6 14.6937 13.725C14.1812 14.125 13.6125 14.4375 12.9875 14.6625C12.3625 14.8875 11.7 15 11 15ZM15.65 9.75H11C10.7875 9.75 10.6095 9.678 10.466 9.534C10.3225 9.39 10.2505 9.212 10.25 9C10.25 8.7875 10.322 8.6095 10.466 8.466C10.61 8.3225 10.788 8.2505 11 8.25H15.65L14.975 7.575C14.8375 7.4375 14.7687 7.2625 14.7687 7.05C14.7687 6.8375 14.8375 6.6625 14.975 6.525C15.1125 6.3875 15.2875 6.31875 15.5 6.31875C15.7125 6.31875 15.8875 6.3875 16.025 6.525L17.975 8.475C18.125 8.625 18.2 8.8 18.2 9C18.2 9.2 18.125 9.375 17.975 9.525L16.025 11.475C15.8875 11.6125 15.7125 11.6812 15.5 11.6812C15.2875 11.6812 15.1125 11.6125 14.975 11.475C14.8375 11.3375 14.7687 11.1625 14.7687 10.95C14.7687 10.7375 14.8375 10.5625 14.975 10.425L15.65 9.75Z" fill="white"/>
</g>
<defs>
<clipPath id="clip0_1574_15386">
<rect width="18" height="18" fill="white" transform="translate(0.5)"/>
</clipPath>
</defs>
</svg>
