<svg width="30" height="30" viewBox="0 0 30 30" fill="none" xmlns="http://www.w3.org/2000/svg">
<path d="M28.81 25.3543L27.8243 19.4464C27.5834 18.0044 26.7796 16.7171 25.5898 15.8676C24.3999 15.0181 22.9214 14.676 21.4793 14.9164L16.8271 15.6921L15.3636 6.92786C15.2513 6.25911 14.8781 5.66229 14.326 5.26853C13.774 4.87477 13.0882 4.71627 12.4193 4.82786C11.0264 5.05929 10.0836 6.37714 10.3193 7.77214L12.235 19.2579L11.4571 19.5429C10.8822 19.7533 10.369 20.1041 9.96408 20.5632C9.55915 21.0224 9.27536 21.5755 9.13847 22.1722C9.00158 22.7689 9.01594 23.3904 9.18024 23.9802C9.34455 24.5699 9.65358 25.1093 10.0793 25.5493L10.4736 25.9564L12.5179 28.0736M3.67857 1.07143L1 3.75M1 3.75L3.67857 6.42857M1 3.75H7.42857M21.8929 1.07143L24.5714 3.75M24.5714 3.75L21.8929 6.42857M24.5714 3.75H18.1429" stroke="#273039" stroke-width="2" stroke-linecap="round" stroke-linejoin="round"/>
</svg>
