<?xml version="1.0" encoding="UTF-8"?>
<svg id="Layer_2" data-name="Layer 2" xmlns="http://www.w3.org/2000/svg" viewBox="0 0 603.25 64.55">
  <defs>
    <style>
      .cls-1 {
        fill: none;
        stroke: #262C33;
      }

      .cls-2 {
        fill: rgba(41, 45, 50, .4);
        stroke-width: 0px;
      }
    </style>
  </defs>
  <g id="Layer_1-2" data-name="Layer 1">
    <g id="bottom">
      <path class="cls-2" d="M602.75.05v27.8c0,.71-.04,1.41-.11,2.11-1.05,9.78-9.33,17.39-19.39,17.39h-199.84c-5.44,0-10.65,2.16-14.49,6l-5,4.99c-3.66,3.65-8.61,5.71-13.78,5.71h-209.73c-5.17,0-10.13-2.06-13.79-5.71l-4.99-4.99c-3.85-3.84-9.06-6-14.49-6h-58.68c-5.03,0-9.87-1.95-13.51-5.44l-12.43-11.95L6.49,14.56C2.66,10.89.5,5.81.5.5V.05h602.25Z"/>
      <path class="cls-1" d="M.5.05v.45c0,5.31,2.16,10.39,5.99,14.06l16.03,15.4,12.43,11.95c3.64,3.49,8.48,5.44,13.51,5.44h58.68c5.43,0,10.64,2.16,14.49,6l4.99,4.99c3.66,3.65,8.62,5.71,13.79,5.71h209.73c5.17,0,10.12-2.06,13.78-5.71l5-4.99c3.84-3.84,9.05-6,14.49-6h199.84c10.06,0,18.34-7.61,19.39-17.39.07-.7.11-1.4.11-2.11V.05"/>
    </g>
  </g>
</svg>