<?xml version="1.0" encoding="UTF-8"?>
<svg id="Layer_2" data-name="Layer 2" xmlns="http://www.w3.org/2000/svg" viewBox="0 0 603.22 68.52">
  <defs>
    <style>
      .cls-1 {
        fill: none;
        stroke: #262C33;
      }

      .cls-2 {
        fill: rgba(41, 45, 50, .4);
        stroke-width: 0px;
      }
    </style>
  </defs>
  <g id="Layer_1-2" data-name="Layer 1">
    <g id="top">
      <path class="cls-2" d="M602.72,68.5H.5V26.27c0-5.47,2.29-10.68,6.31-14.37l6.83-6.27C17.24,2.33,21.94.5,26.83.5h106.35c5.16,0,10.12,2.05,13.78,5.71l5.77,5.77c3.85,3.84,9.06,5.99,14.49,5.99h237.71c5.44,0,10.65-2.15,14.49-5.99l5.78-5.77c3.65-3.66,8.61-5.71,13.78-5.71h91.92c4.97,0,9.76,1.9,13.37,5.31l52.35,49.32c2.39,2.26,4.15,5.06,5.15,8.13.05.14.1.28.14.43.05.14.09.29.13.44.06.21.11.42.16.63.05.17.09.34.12.52.06.25.11.5.14.75.06.31.11.62.14.94.03.25.06.51.08.76.02.15.03.29.03.44.01.11.01.22.01.33Z"/>
      <path class="cls-1" d="M.5,68.5V26.27c0-5.47,2.29-10.68,6.31-14.37l6.83-6.27C17.24,2.33,21.94.5,26.83.5h106.35c5.16,0,10.12,2.05,13.78,5.71l5.77,5.77c3.85,3.84,9.06,5.99,14.49,5.99h237.71c5.44,0,10.65-2.15,14.49-5.99l5.78-5.77c3.65-3.66,8.61-5.71,13.78-5.71h91.92c4.97,0,9.76,1.9,13.37,5.31l38.19,35.98,14.16,13.34c2.39,2.26,4.15,5.06,5.15,8.13.05.14.1.28.14.43.05.14.09.29.13.44.06.21.12.42.16.63.05.17.09.34.12.52.06.25.11.5.14.75.06.31.11.62.14.94.04.25.06.5.08.76.02.15.03.29.03.44.01.11.01.21.01.33"/>
    </g>
  </g>
</svg>