<?xml version="1.0" encoding="utf-8"?>
<!-- Generator: Adobe Illustrator 26.0.0, SVG Export Plug-In . SVG Version: 6.00 Build 0)  -->
<svg version="1.1" id="Capa_1" xmlns="http://www.w3.org/2000/svg" xmlns:xlink="http://www.w3.org/1999/xlink" x="0px" y="0px"
	 viewBox="0 0 1106.7 74.1" style="enable-background:new 0 0 1106.7 74.1;" xml:space="preserve">
<style type="text/css">
	.st0{fill-rule:evenodd;clip-rule:evenodd;fill:#292D32;fill-opacity:0.4;}
</style>
<g>
	<path class="st0" d="M18.3,18.3c3.8,3.8,8.8,5.9,14.1,5.9h93.4c5.3,0,10.4,2.1,14.1,5.9l12.3,12.3c3.8,3.8,8.8,5.9,14.1,5.9h234.9
		c5.3,0,10.4-2.1,14.1-5.9L427.8,30c3.8-3.8,8.8-5.9,14.1-5.9h206.9c5.3,0,10.4,2.1,14.1,5.9l19.8,19.8c3.8,3.8,8.8,5.9,14.1,5.9
		h201.9c5.3,0,10.4,2.1,14.1,5.9l6.3,6.3c3.8,3.8,8.8,5.9,14.1,5.9h91.4c5.3,0,10.4-2.1,14.1-5.9L1106.7,0H0L18.3,18.3z"/>
</g>
</svg>
