<svg width="150" height="40" viewBox="0 0 150 40" fill="none" xmlns="http://www.w3.org/2000/svg">
<path d="M70.8898 16.5914H84.2985V14.2983H70.8898V16.5914ZM91.1972 21.0803H101.944V18.8261H88.4183V19.8755C88.4183 23.1985 90.4782 25.2779 93.8595 25.2779H102.216V22.6933H93.8983C92.2854 22.7127 91.5275 22.1297 91.1972 21.0803ZM88.4183 16.7857H102.216V14.4149H88.4183V16.7857ZM126.818 25.2973H129.461V14.4149H126.818V25.2973ZM119.064 20.7889C119.064 20.9443 119.083 21.1775 119.103 21.5079L118.617 21.0026C115.896 18.0488 112.671 15.5225 109.173 14.4149H106.88V25.2973H109.464V17.9905C109.464 17.8739 109.445 17.6213 109.425 17.2326C109.697 17.3298 109.93 17.427 110.144 17.5047C112.981 18.5735 115.858 21.2358 118.831 25.3167H121.629V14.4343H119.044V20.7889H119.064ZM150.001 14.4149H146.27L141.878 18.3597L137.564 14.4149H133.794L140.11 19.8949L133.833 25.2973H137.506L141.995 21.3135L146.289 25.2973H150.001L143.685 19.7978L150.001 14.4149ZM73.6104 18.7095H70.7344V25.2973H73.6493V22.4407C73.727 22.052 74.0185 21.3135 74.9707 21.3135H75.1651H84.2985V18.7095H73.6493H73.6104Z" fill="white"/>
<path d="M11.9712 9.26946C19.3557 13.6807 30.1215 19.7243 30.1215 19.7243L28.1393 13.9333C28.1393 13.9333 8.02629 4.19748 5.26683 0.116577C5.28626 0.13601 4.60611 4.83877 11.9712 9.26946Z" fill="url(#paint0_linear_215_4229)"/>
<path d="M49.4567 13.6807L36.3006 21.6482L33.1913 29.3436L30.121 21.7842L16.9649 13.8167C16.9649 13.8167 1.18541 4.35291 0 0.660664C0 0.660664 0.272058 7.88969 6.17965 11.9706C12.0872 16.0515 27.6141 24.7186 27.6141 24.7186L33.133 39.0989V39.3126L33.1719 39.2155L33.2691 39.4487V38.9823L38.788 24.602C38.788 24.602 54.2954 15.9155 60.2225 11.854C66.1495 7.79253 66.4021 0.544067 66.4021 0.544067C65.2362 4.21688 49.4567 13.6807 49.4567 13.6807Z" fill="url(#paint1_linear_215_4229)"/>
<path d="M54.4706 9.13345C61.8551 4.72219 61.175 0 61.175 0C58.4155 4.0809 38.283 13.8168 38.283 13.8168L36.3203 19.6078C36.3203 19.5883 47.1055 13.5447 54.4706 9.13345Z" fill="url(#paint2_linear_215_4229)"/>
<path d="M37.0968 13.9334L33.1519 6.66553L29.207 13.9334L33.1519 27.2061L37.0968 13.9334Z" fill="url(#paint3_linear_215_4229)"/>
<path d="M27.3819 26.6815L11.719 17.3537C11.719 17.3537 11.4664 26.8175 27.3819 26.6815Z" fill="url(#paint4_linear_215_4229)"/>
<path d="M38.9453 26.6815C54.8608 26.8175 54.6082 17.3537 54.6082 17.3537L38.9453 26.6815Z" fill="url(#paint5_linear_215_4229)"/>
<defs>
<linearGradient id="paint0_linear_215_4229" x1="5.87399" y1="16.2455" x2="54.3983" y2="-9.65401" gradientUnits="userSpaceOnUse">
<stop stop-color="#E71505"/>
<stop offset="0.7318" stop-color="#FFB400"/>
<stop offset="1" stop-color="#FFF888"/>
</linearGradient>
<linearGradient id="paint1_linear_215_4229" x1="9.84625" y1="23.6887" x2="58.3705" y2="-2.21078" gradientUnits="userSpaceOnUse">
<stop stop-color="#E71505"/>
<stop offset="0.7318" stop-color="#FFB400"/>
<stop offset="1" stop-color="#FFF888"/>
</linearGradient>
<linearGradient id="paint2_linear_215_4229" x1="12.6997" y1="29.0343" x2="61.224" y2="3.13486" gradientUnits="userSpaceOnUse">
<stop stop-color="#E71505"/>
<stop offset="0.065186" stop-color="#E92305"/>
<stop offset="0.7318" stop-color="#FFB400"/>
<stop offset="1" stop-color="#FFF888"/>
</linearGradient>
<linearGradient id="paint3_linear_215_4229" x1="12.2074" y1="28.1136" x2="60.7317" y2="2.21412" gradientUnits="userSpaceOnUse">
<stop stop-color="#E71505"/>
<stop offset="0.7318" stop-color="#FFB400"/>
<stop offset="1" stop-color="#FFF888"/>
</linearGradient>
<linearGradient id="paint4_linear_215_4229" x1="11.1435" y1="26.5062" x2="59.6678" y2="0.606703" gradientUnits="userSpaceOnUse">
<stop stop-color="#E71505"/>
<stop offset="0.7318" stop-color="#FFB400"/>
<stop offset="1" stop-color="#FFF888"/>
</linearGradient>
<linearGradient id="paint5_linear_215_4229" x1="17.9258" y1="39.2118" x2="66.4501" y2="13.3123" gradientUnits="userSpaceOnUse">
<stop stop-color="#E71505"/>
<stop offset="0.7318" stop-color="#FFB400"/>
<stop offset="1" stop-color="#FFF888"/>
</linearGradient>
</defs>
</svg>
