<?xml version="1.0" encoding="utf-8"?>
<!-- Generator: Adobe Illustrator 26.0.0, SVG Export Plug-In . SVG Version: 6.00 Build 0)  -->
<svg version="1.1" id="Capa_1" xmlns="http://www.w3.org/2000/svg" xmlns:xlink="http://www.w3.org/1999/xlink" x="0px" y="0px"
	 viewBox="0 0 1171 137.1" style="enable-background:new 0 0 1171 137.1;" xml:space="preserve">
<style type="text/css">
	.st0{fill:#292D32;fill-opacity:0.4;}
</style>
<path class="st0" d="M0,0v63.1h0.2c0.7,4.3,2.8,8.4,6,11.4l59.4,56.1c3.7,3.5,8.6,5.5,13.7,5.5h128c4.9,0,9.6-1.8,13.3-5l27.6-24.5
	c3.7-3.2,8.4-5,13.3-5h307.8c4,0,7.8,1.9,11.1,4.3c1.1,0.8,2.2,1.6,3.4,2.2l43.8,23c1,0.5,1.9,1.2,2.9,1.8c0.2,0.1,0.4,0.3,0.6,0.4
	c3.3,2.2,7.1,3.3,11,3.3h450.1c5,0,9.8-1.9,13.5-5.2l58.3-54.3c3.9-3.6,6.3-8.6,6.5-13.9h0.5V0H0z"/>
</svg>
