<?xml version="1.0" encoding="utf-8"?>
<!-- Generator: Adobe Illustrator 26.0.0, SVG Export Plug-In . SVG Version: 6.00 Build 0)  -->
<svg version="1.1" id="Capa_1" xmlns="http://www.w3.org/2000/svg" xmlns:xlink="http://www.w3.org/1999/xlink" x="0px" y="0px"
	 viewBox="0 0 1152 220.9" style="enable-background:new 0 0 1152 220.9;" xml:space="preserve">
<style type="text/css">
	.st0{fill:#292D32;fill-opacity:0.4;}
</style>
<path class="st0" d="M1145.6,87.5l-95-82.6c-3.6-3.2-8.3-4.9-13.1-4.9h-90.3c-5,0-9.7,1.8-13.4,5.2l-9.1,8.2
	c-3.7,3.3-8.4,5.2-13.4,5.2H713.2c-2.8,0-5.6,0.6-8.1,1.7l-36.3,16.1c-2.6,1.1-5.3,1.7-8.1,1.7H71.1c-5.2,0-10.1,2-13.9,5.6L0.7,98
	v16.9v106H1152v-106V98C1151,94,1148.8,90.3,1145.6,87.5z"/>
</svg>
