<?xml version="1.0" encoding="UTF-8"?>
<svg id="Layer_2" data-name="Layer 2" xmlns="http://www.w3.org/2000/svg" xmlns:xlink="http://www.w3.org/1999/xlink" viewBox="0 0 89.07 86.51">
  <defs>
    <style>
      .cls-1 {
        fill: rgba(41, 45, 50, .4);
        fill-rule: evenodd;
      }

      .cls-1, .cls-2, .cls-3 {
        stroke-width: 0px;
      }

      .cls-2 {
        fill: none;
      }

      .cls-3 {
        fill: #262c33;
      }

      .cls-4 {
        clip-path: url(#clippath);
      }
    </style>
    <clipPath id="clippath">
      <rect class="cls-2" width="89.07" height="86.51"/>
    </clipPath>
  </defs>
  <g id="upper">
    <g id="left">
      <polygon class="cls-3" points="75.89 6.31 6.82 72.82 6.13 72.1 75.19 5.59 75.89 6.31"/>
      <path class="cls-3" d="M89.07,0v1c-4.92,0-9.64,1.9-13.18,5.31l-.7-.72c3.73-3.58,8.7-5.59,13.88-5.59Z"/>
      <path class="cls-3" d="M6.82,72.82c-3.72,3.58-5.82,8.52-5.82,13.69H0c0-5.44,2.21-10.64,6.13-14.41l.69.72Z"/>
      <path class="cls-1" d="M89.07,0v1c-4.92,0-9.64,1.9-13.18,5.31L6.82,72.82c-3.72,3.58-5.82,8.52-5.82,13.69H0c0-5.44,2.21-10.64,6.13-14.41L75.19,5.59c3.73-3.58,8.7-5.59,13.88-5.59Z"/>
      <g class="cls-4">
        <path class="cls-1" d="M89.1,0v86.51H1c0-5.17,2.1-10.11,5.82-13.69L75.89,6.31c3.54-3.41,8.26-5.31,13.18-5.31V0h.03Z"/>
      </g>
    </g>
  </g>
</svg>