<?xml version="1.0" encoding="UTF-8"?>
<svg id="Layer_2" data-name="Layer 2" xmlns="http://www.w3.org/2000/svg" viewBox="0 0 968.43 124.51">
  <defs>
    <style>
      .cls-1 {
        fill: rgba(41, 45, 50, .4);
        fill-rule: evenodd;
      }

      .cls-1, .cls-2 {
        stroke-width: 0px;
      }

      .cls-2 {
        fill: #262c33;
      }
    </style>
  </defs>
  <g id="upper">
    <g id="right">
      <polygon class="cls-2" points="484.8 36.29 485.21 37.2 485.21 37.2 484.8 36.29"/>
      <polygon class="cls-2" points="749.72 5.15 750.39 5.89 750.39 5.89 749.72 5.15"/>
      <polygon class="cls-2" points="961.56 87.52 960.9 88.28 960.9 88.28 961.56 87.52"/>
      <rect class="cls-2" y="38" width="476.7" height="1"/>
      <path class="cls-2" d="M485.21,37.2c-2.68,1.19-5.58,1.8-8.51,1.8v-1c2.79,0,5.55-.58,8.1-1.71h0l.4.91Z"/>
      <polygon class="cls-2" points="521.47 21.13 485.21 37.2 484.81 36.29 521.06 20.22 521.07 20.22 521.47 21.13"/>
      <path class="cls-2" d="M529.16,18.5v1c-2.65,0-5.27.56-7.69,1.63l-.4-.91c2.55-1.14,5.3-1.72,8.09-1.72Z"/>
      <rect class="cls-2" x="529.16" y="18.5" width="198.08" height="1"/>
      <path class="cls-2" d="M741.31,14.09c-3.86,3.48-8.87,5.41-14.07,5.41v-1c4.95,0,9.73-1.84,13.4-5.15l.67.74Z"/>
      <polygon class="cls-2" points="750.39 5.89 741.31 14.09 740.64 13.35 749.72 5.15 750.39 5.89"/>
      <path class="cls-2" d="M763.12,0v1c-4.7,0-9.24,1.74-12.73,4.89l-.67-.74c3.68-3.31,8.45-5.15,13.4-5.15Z"/>
      <rect class="cls-2" x="763.12" width="90.33" height="1"/>
      <path class="cls-2" d="M866.58,4.91l-.66.75c-3.46-3-7.89-4.66-12.47-4.66V0c4.82,0,9.49,1.74,13.13,4.91Z"/>
      <rect class="cls-2" x="913.24" y="-16.35" width="1" height="125.88" transform="translate(279.42 705.93) rotate(-49.03)"/>
      <path class="cls-2" d="M968.43,102.61h-1c0-5.5-2.38-10.73-6.53-14.33l.66-.76c4.36,3.8,6.87,9.3,6.87,15.09Z"/>
      <rect class="cls-2" x="967.43" y="102.61" width="1" height="21.9"/>
      <path class="cls-1" d="M968.43,102.61v21.9H.03V38h476.67c2.79,0,5.55-.58,8.1-1.71h0l36.25-16.07h.01c2.55-1.14,5.3-1.72,8.09-1.72h198.08c4.95,0,9.73-1.84,13.4-5.15l9.08-8.2c3.68-3.31,8.45-5.15,13.4-5.15h90.33c4.82,0,9.49,1.74,13.13,4.91l94.98,82.61c4.36,3.8,6.87,9.3,6.87,15.09Z"/>
    </g>
  </g>
</svg>