<?xml version="1.0" encoding="UTF-8"?>
<svg id="Layer_2" data-name="Layer 2" xmlns="http://www.w3.org/2000/svg" viewBox="0 0 979.23 80.62">
  <defs>
    <style>
      .cls-1 {
        fill: rgba(41, 45, 50, .4);
        fill-rule: evenodd;
      }

      .cls-1, .cls-2 {
        stroke-width: 0px;
      }

      .cls-2 {
        fill: #262c33;
      }
    </style>
  </defs>
  <g id="bottom">
    <g id="left">
      <path class="cls-2" d="M516.47,76.08l-.64.77.64-.77Z"/>
      <path class="cls-2" d="M469.03,37.16l.63-.77-.63.77Z"/>
      <path class="cls-2" d="M205.54,36.65l.6.8-.6-.8Z"/>
      <polygon class="cls-2" points="203.33 38.84 202.56 38.21 202.56 38.21 203.33 38.84"/>
      <polygon class="cls-2" points="177.67 69.9 178.44 70.53 178.44 70.53 177.67 69.9"/>
      <path class="cls-2" d="M175.47,72.09l-.6-.8.6.8Z"/>
      <polygon class="cls-2" points="65.72 70.66 65.03 71.39 65.03 71.39 65.72 70.66"/>
      <polygon class="cls-2" points="6.27 14.54 5.59 15.27 5.59 15.27 6.27 14.54"/>
      <rect class="cls-2" x="529.16" y="79.62" width="450.07" height="1"/>
      <path class="cls-2" d="M529.16,79.62v1c-4.63,0-9.11-1.6-12.69-4.54l.63-.77c3.4,2.79,7.66,4.31,12.06,4.31Z"/>
      <polygon class="cls-2" points="517.1 75.31 516.47 76.08 469.03 37.16 469.67 36.39 517.1 75.31"/>
      <path class="cls-2" d="M469.67,36.39l-.64.77c-3.57-2.94-8.06-4.54-12.68-4.54v-1c4.85,0,9.56,1.68,13.32,4.77Z"/>
      <rect class="cls-2" x="217.58" y="31.62" width="238.77" height="1"/>
      <path class="cls-2" d="M217.58,31.62v1c-4.36,0-8.59,1.42-12.04,4.03l-.61-.8c3.63-2.73,8.07-4.23,12.65-4.23Z"/>
      <path class="cls-2" d="M205.54,36.65c-.83.63-1.55,1.39-2.21,2.19l-.77-.63c.68-.83,1.45-1.66,2.37-2.36l.61.8Z"/>
      <polygon class="cls-2" points="203.33 38.84 177.67 69.9 176.9 69.26 202.56 38.21 203.33 38.84"/>
      <path class="cls-2" d="M177.67,69.9c-.66.8-1.37,1.56-2.2,2.19l-.61-.8c.75-.56,1.4-1.26,2.04-2.03l.77.64Z"/>
      <path class="cls-2" d="M175.47,72.09c-3.46,2.61-7.69,4.03-12.05,4.03v-1c4.15,0,8.16-1.35,11.44-3.83l.61.8Z"/>
      <rect class="cls-2" x="79.45" y="75.12" width="83.97" height="1"/>
      <path class="cls-2" d="M79.45,75.12v1c-5.1,0-10.02-1.95-13.73-5.46l.69-.72c3.52,3.33,8.19,5.18,13.04,5.18Z"/>
      <rect class="cls-2" x="35.84" y="1.36" width="1" height="81.76" transform="translate(-19.3 39.25) rotate(-46.22)"/>
      <path class="cls-2" d="M6.96,13.81l-.69.73C2.27,10.76,0,5.5,0,0h1c0,5.23,2.16,10.22,5.96,13.81Z"/>
      <path class="cls-1" d="M979.23,0v80.62h-450.07c-4.63,0-9.11-1.6-12.69-4.54l-47.44-38.92c-3.57-2.94-8.06-4.54-12.68-4.54h-238.77c-4.36,0-8.59,1.42-12.04,4.03-.83.63-1.55,1.39-2.21,2.19l-25.66,31.06c-.66.8-1.37,1.56-2.2,2.19-3.46,2.61-7.69,4.03-12.05,4.03h-83.97c-5.1,0-10.02-1.95-13.73-5.46L6.27,14.54C2.27,10.76,0,5.5,0,0h979.23Z"/>
    </g>
  </g>
</svg>