<svg width="478" height="464" viewBox="0 0 478 464" fill="none" xmlns="http://www.w3.org/2000/svg">
<g filter="url(#filter0_b_457_1965)">
<path d="M478 69.3239V427.304C478 438.349 469.046 447.304 458 447.304H258.161C252.859 447.304 247.775 449.409 244.024 453.156L239.028 458.148C235.277 461.895 230.193 464 224.891 464H140.409C135.108 464 130.023 461.895 126.273 458.148L121.276 453.156C117.526 449.409 112.442 447.304 107.14 447.304H48.4667C43.3011 447.304 38.3358 445.305 34.6107 441.726L6.14398 414.378C2.21863 410.607 -3.05176e-05 405.399 -3.05176e-05 399.955V26.2649C-3.05176e-05 20.6622 2.35001 15.3164 6.47818 11.5285L13.3058 5.26358C16.9953 1.87823 21.8204 -3.05176e-05 26.8276 -3.05176e-05H133.178C138.479 -3.05176e-05 143.563 2.10474 147.314 5.85175L153.088 11.621C156.838 15.368 161.923 17.4727 167.224 17.4727H279.687C284.988 17.4727 290.072 15.368 293.823 11.621L299.597 5.85178C303.347 2.10474 308.432 -3.05176e-05 313.733 -3.05176e-05H405.655C410.754 -3.05176e-05 415.66 1.94733 419.371 5.44403L471.716 54.768C475.726 58.5471 478 63.8134 478 69.3239Z" fill="#292D32" fill-opacity="0.4"/>
<path d="M477.5 69.3239V427.304C477.5 438.073 468.77 446.804 458 446.804H258.161C252.727 446.804 247.515 448.961 243.671 452.802L238.674 457.794C235.018 461.448 230.06 463.5 224.891 463.5H140.409C135.24 463.5 130.283 461.448 126.627 457.795L121.63 452.802C117.786 448.961 112.574 446.804 107.14 446.804H48.4667C43.4302 446.804 38.5891 444.855 34.9571 441.366L6.49039 414.017C2.66315 410.341 0.499969 405.263 0.499969 399.955V26.2649C0.499969 20.8023 2.79126 15.5901 6.81622 11.8969L13.6439 5.63199C17.2411 2.33127 21.9456 0.499969 26.8276 0.499969H133.178C138.346 0.499969 143.304 2.55212 146.96 6.20544L152.734 11.9747C156.578 15.8154 161.79 17.9727 167.224 17.9727H279.687C285.12 17.9727 290.332 15.8154 294.176 11.9747L299.95 6.20547C303.607 2.55212 308.564 0.499969 313.733 0.499969H405.655C410.626 0.499969 415.41 2.39865 419.028 5.80792L471.373 55.1319C475.283 58.8165 477.5 63.9512 477.5 69.3239Z" stroke="white" stroke-opacity="0.1" style="mix-blend-mode:overlay"/>
</g>
<defs>
<filter id="filter0_b_457_1965" x="-30" y="-30" width="538" height="524" filterUnits="userSpaceOnUse" color-interpolation-filters="sRGB">
<feFlood flood-opacity="0" result="BackgroundImageFix"/>
<feGaussianBlur in="BackgroundImageFix" stdDeviation="15"/>
<feComposite in2="SourceAlpha" operator="in" result="effect1_backgroundBlur_457_1965"/>
<feBlend mode="normal" in="SourceGraphic" in2="effect1_backgroundBlur_457_1965" result="shape"/>
</filter>
</defs>
</svg>
