<svg width="615" height="598" viewBox="0 0 615 598" fill="none" xmlns="http://www.w3.org/2000/svg">
<g clip-path="url(#clip0_6997_3)">
<mask id="mask0_6997_3" style="mask-type:luminance" maskUnits="userSpaceOnUse" x="0" y="0" width="615" height="598">
<path d="M615 0H0V598H615V0Z" fill="white"/>
</mask>
<g mask="url(#mask0_6997_3)">
<mask id="mask1_6997_3" style="mask-type:luminance" maskUnits="userSpaceOnUse" x="0" y="0" width="615" height="598">
<path d="M615 0H0V598H615V0Z" fill="white"/>
</mask>
<g mask="url(#mask1_6997_3)">
<path d="M45.4957 591.789L35.7115 582.004C31.8669 578.16 26.6527 576 21.2157 576H20C9.23044 576 0.5 567.27 0.5 556.5V93.7843C0.5 88.6125 2.55446 83.6527 6.21141 79.9958L79.4957 6.71141C83.1527 3.05444 88.1125 1 93.2843 1H213.716C218.887 1 223.847 3.05444 227.504 6.7114L238.288 17.4957C242.133 21.3402 247.347 23.5 252.784 23.5H402.216C407.653 23.5 412.867 21.3402 416.712 17.4958L427.496 6.71142C431.153 3.05444 436.113 1 441.284 1H582.71C587.595 1 592.302 2.83348 595.9 6.13767L608.19 17.4247C612.211 21.1177 614.5 26.3273 614.5 31.787V517.985C614.5 523.289 612.339 528.365 608.515 532.042L568.461 570.557C564.828 574.049 559.984 576 554.945 576H210.784C205.347 576 200.133 578.16 196.288 582.004L186.504 591.788C182.847 595.446 177.887 597.5 172.716 597.5H59.2843C54.1125 597.5 49.1527 595.446 45.4957 591.789Z" fill="#292D32" fill-opacity="0.4"/>
</g>
</g>
</g>
<defs>
<clipPath id="clip0_6997_3">
<rect width="615" height="598" fill="white"/>
</clipPath>
</defs>
</svg>
