<svg width="1058" height="607" viewBox="0 0 1058 607" fill="none" xmlns="http://www.w3.org/2000/svg">
<path fill-rule="evenodd" clip-rule="evenodd" d="M6.12717 110.1L75.1913 43.5936C78.918 40.0049 83.8904 38 89.0641 38H565.767C568.558 38 571.318 37.4157 573.87 36.2848L610.13 20.2152C612.682 19.0843 615.442 18.5 618.233 18.5H816.31C821.26 18.5 826.034 16.6643 829.709 13.3479L838.791 5.15214C842.466 1.83573 847.24 0 852.19 0H942.519C947.343 0 952.005 1.74357 955.645 4.9094L1050.63 87.5206C1054.99 91.3191 1057.5 96.8232 1057.5 102.611V533.19C1057.5 538.803 1055.14 544.158 1051 547.947L992.732 601.256C989.045 604.629 984.229 606.5 979.231 606.5H529.155C524.529 606.5 520.045 604.896 516.469 601.961L469.031 563.039C465.455 560.104 460.971 558.5 456.345 558.5H217.577C213.217 558.5 208.993 559.924 205.535 562.531C204.704 563.158 203.992 563.923 203.33 564.724L177.67 595.776C177.008 596.577 176.296 597.342 175.465 597.969C172.007 600.576 167.783 602 163.423 602H79.4492C74.344 602 69.432 600.048 65.7197 596.543L6.27051 540.42C2.26826 536.641 0 531.381 0 525.877V124.506C0 119.071 2.21208 113.87 6.12717 110.1Z" fill="#292D32" fill-opacity="0.4"/>
</svg>
